# xmcd
#
# Track frame offsets:
#	187
#	14782
#	24619
#	41429
#	55417
#	65659
#	84064
#	93239
#	106099
#	119397
#	137642
#	149347
#	168177
#	185969
#	202152
#	220647
#
# Disc length: 3134 seconds
#
# Revision: 1
# Processed by: cddbd v1.5.1PL0 Copyright (c) Steve Scherf et al.
# Submitted via: CDex 1.50Beta5
#
DISCID=e50c3c10
DTITLE=URAN - 踊るテレビ&アニメ・ヒット集
DYEAR=1999
DGENRE=
TTITLE0=URAN/おどるポンポコリン
TTITLE1=渡辺かおり/だんご3兄弟
TTITLE2=宮内良/およげ!たいやきくん
TTITLE3=渡辺かおり/はたらくくるま3
TTITLE4=細野高裕/ひょっこりひょうたん島
TTITLE5=フェルメール/お料理行進曲
TTITLE6=宮内良/ドラネコロックンロール
TTITLE7=吉中美樹/アンパンマンのマーチ
TTITLE8=Mina/ムーンライト伝説
TTITLE9=大和田りつこ/となりのトトロ
TTITLE10=MAKI/ン・パカ・マーチ
TTITLE11=小野ひとみ/めざせ!ポケモンマスター
TTITLE12=渡辺かおり/ホール・ニュー・ワールド
TTITLE13=岡崎裕美/魔法使いサリー
TTITLE14=テレビ・マンガ合唱隊/ピンポンパン体操
TTITLE15=MAKI/おどるポンポコリン
EXTD=
EXTT0=
EXTT1=
EXTT2=
EXTT3=
EXTT4=
EXTT5=
EXTT6=
EXTT7=
EXTT8=
EXTT9=
EXTT10=
EXTT11=
EXTT12=
EXTT13=
EXTT14=
EXTT15=
PLAYORDER=
